<?xml version="1.0" encoding="utf-8"?>
<!-- Generator: Adobe Illustrator 27.9.0, SVG Export Plug-In . SVG Version: 6.00 Build 0)  -->
<svg version="1.1" id="レイヤー_1" xmlns="http://www.w3.org/2000/svg" xmlns:xlink="http://www.w3.org/1999/xlink" x="0px"
	 y="0px" viewBox="0 0 51.0236206 34.0157471" style="enable-background:new 0 0 51.0236206 34.0157471;" xml:space="preserve">
<style type="text/css">
	.st0{fill:#1E2096;}
	.st1{display:none;fill:#5559E0;stroke:#5559E0;stroke-miterlimit:10;}
	.st2{display:none;fill:#5559E0;stroke:#64C9FF;stroke-width:6;stroke-miterlimit:10;}
	.st3{fill:#5559E0;stroke:#5559E0;stroke-miterlimit:10;}
	.st4{fill:#2FBCFF;stroke:#2FBCFF;stroke-miterlimit:10;}
</style>
<rect x="-2.0415599" y="-2.6871691" class="st0" width="54.8893967" height="47.7171021"/>
<line class="st1" x1="0" y1="22.5909538" x2="44.0000191" y2="-22.4090652"/>
<line class="st2" x1="0" y1="64.3541336" x2="56.6929131" y2="64.3541336"/>
<line class="st1" x1="14.2726192" y1="27.3183346" x2="64.0000229" y2="-22.4090652"/>
<g id="_x35_qxdm0.tif">
	
		<image style="overflow:visible;" width="110" height="54" id="Layer_0_00000106862823737047056720000014707143773625623979_" xlink:href="88EB0C107F2D09C7.png"  transform="matrix(0.5 0 0 0.5 -69.311203 -16.1871681)">
	</image>
</g>
<line class="st3" x1="17.0078735" y1="36.0040588" x2="51.0236206" y2="0"/>
<line class="st3" x1="8.5039368" y1="36.0040588" x2="42.5196838" y2="0"/>
<line class="st3" x1="0" y1="36.0040588" x2="34.0157471" y2="0"/>
<line class="st3" x1="-8.5039368" y1="36.0040588" x2="25.5118103" y2="0"/>
<line class="st3" x1="-17.0078735" y1="36.0040588" x2="17.0078735" y2="0"/>
<line class="st3" x1="-25.5118103" y1="36.0040588" x2="8.5039368" y2="0"/>
<line class="st3" x1="25.5118103" y1="36.0040588" x2="59.5275574" y2="0"/>
<line class="st3" x1="34.0157471" y1="36.0040588" x2="68.0314941" y2="0"/>
<line class="st3" x1="42.5196838" y1="36.0040588" x2="76.5354309" y2="0"/>
<rect x="-3.3820083" y="29.8356438" class="st4" width="56.6929131" height="7.4357443"/>
</svg>
