<?xml version="1.0" encoding="utf-8"?>
<!-- Generator: Adobe Illustrator 27.9.0, SVG Export Plug-In . SVG Version: 6.00 Build 0)  -->
<svg version="1.1" id="レイヤー_1" xmlns="http://www.w3.org/2000/svg" xmlns:xlink="http://www.w3.org/1999/xlink" x="0px"
	 y="0px" viewBox="0 0 1133.9 34" style="enable-background:new 0 0 1133.9 34;" xml:space="preserve">
<style type="text/css">
	.st0{fill:#1E2096;}
	.st1{display:none;fill:none;stroke:#5559E0;stroke-miterlimit:10;}
	.st2{display:none;fill:none;stroke:#64C9FF;stroke-width:6;stroke-miterlimit:10;}
	.st3{fill:none;stroke:#5559E0;stroke-miterlimit:10;}
	.st4{fill:#2FBCFF;stroke:#2FBCFF;stroke-miterlimit:10;}
</style>
<rect x="-2" y="-2.7" class="st0" width="1135.9" height="47.7"/>
<line class="st1" x1="0" y1="22.6" x2="44" y2="-22.4"/>
<line class="st2" x1="0" y1="64.4" x2="56.7" y2="64.4"/>
<line class="st1" x1="14.3" y1="27.3" x2="64" y2="-22.4"/>
<line class="st3" x1="17" y1="36" x2="51" y2="0"/>
<line class="st3" x1="8.5" y1="36" x2="42.5" y2="0"/>
<line class="st3" x1="0" y1="36" x2="34" y2="0"/>
<line class="st3" x1="-8.5" y1="36" x2="25.5" y2="0"/>
<line class="st3" x1="-17" y1="36" x2="17" y2="0"/>
<line class="st3" x1="-25.5" y1="36" x2="8.5" y2="0"/>
<line class="st3" x1="25.5" y1="36" x2="59.5" y2="0"/>
<line class="st3" x1="34" y1="36" x2="68" y2="0"/>
<line class="st3" x1="42.5" y1="36" x2="76.5" y2="0"/>
<line class="st3" x1="93.5" y1="36" x2="127.6" y2="0"/>
<line class="st3" x1="85" y1="36" x2="119.1" y2="0"/>
<line class="st3" x1="76.5" y1="36" x2="110.6" y2="0"/>
<line class="st3" x1="68" y1="36" x2="102" y2="0"/>
<line class="st3" x1="59.5" y1="36" x2="93.5" y2="0"/>
<line class="st3" x1="51" y1="36" x2="85" y2="0"/>
<line class="st3" x1="102" y1="36" x2="136.1" y2="0"/>
<line class="st3" x1="110.6" y1="36" x2="144.6" y2="0"/>
<line class="st3" x1="119.1" y1="36" x2="153.1" y2="0"/>
<line class="st3" x1="170.1" y1="36" x2="204.1" y2="0"/>
<line class="st3" x1="161.6" y1="36" x2="195.6" y2="0"/>
<line class="st3" x1="153.1" y1="36" x2="187.1" y2="0"/>
<line class="st3" x1="144.6" y1="36" x2="178.6" y2="0"/>
<line class="st3" x1="136.1" y1="36" x2="170.1" y2="0"/>
<line class="st3" x1="127.6" y1="36" x2="161.6" y2="0"/>
<line class="st3" x1="178.6" y1="36" x2="212.6" y2="0"/>
<line class="st3" x1="187.1" y1="36" x2="221.1" y2="0"/>
<line class="st3" x1="195.6" y1="36" x2="229.6" y2="0"/>
<line class="st3" x1="246.6" y1="36" x2="280.6" y2="0"/>
<line class="st3" x1="238.1" y1="36" x2="272.1" y2="0"/>
<line class="st3" x1="229.6" y1="36" x2="263.6" y2="0"/>
<line class="st3" x1="221.1" y1="36" x2="255.1" y2="0"/>
<line class="st3" x1="212.6" y1="36" x2="246.6" y2="0"/>
<line class="st3" x1="204.1" y1="36" x2="238.1" y2="0"/>
<line class="st3" x1="255.1" y1="36" x2="289.1" y2="0"/>
<line class="st3" x1="263.6" y1="36" x2="297.6" y2="0"/>
<line class="st3" x1="272.1" y1="36" x2="306.1" y2="0"/>
<line class="st3" x1="323.1" y1="36" x2="357.2" y2="0"/>
<line class="st3" x1="314.6" y1="36" x2="348.7" y2="0"/>
<line class="st3" x1="306.1" y1="36" x2="340.2" y2="0"/>
<line class="st3" x1="297.6" y1="36" x2="331.7" y2="0"/>
<line class="st3" x1="289.1" y1="36" x2="323.1" y2="0"/>
<line class="st3" x1="280.6" y1="36" x2="314.6" y2="0"/>
<line class="st3" x1="331.7" y1="36" x2="365.7" y2="0"/>
<line class="st3" x1="340.2" y1="36" x2="374.2" y2="0"/>
<line class="st3" x1="348.7" y1="36" x2="382.7" y2="0"/>
<line class="st3" x1="399.7" y1="36" x2="433.7" y2="0"/>
<line class="st3" x1="391.2" y1="36" x2="425.2" y2="0"/>
<line class="st3" x1="382.7" y1="36" x2="416.7" y2="0"/>
<line class="st3" x1="374.2" y1="36" x2="408.2" y2="0"/>
<line class="st3" x1="365.7" y1="36" x2="399.7" y2="0"/>
<line class="st3" x1="357.2" y1="36" x2="391.2" y2="0"/>
<line class="st3" x1="408.2" y1="36" x2="442.2" y2="0"/>
<line class="st3" x1="416.7" y1="36" x2="450.7" y2="0"/>
<line class="st3" x1="425.2" y1="36" x2="459.2" y2="0"/>
<line class="st3" x1="476.2" y1="36" x2="510.2" y2="0"/>
<line class="st3" x1="467.7" y1="36" x2="501.7" y2="0"/>
<line class="st3" x1="459.2" y1="36" x2="493.2" y2="0"/>
<line class="st3" x1="450.7" y1="36" x2="484.7" y2="0"/>
<line class="st3" x1="442.2" y1="36" x2="476.2" y2="0"/>
<line class="st3" x1="433.7" y1="36" x2="467.7" y2="0"/>
<line class="st3" x1="484.7" y1="36" x2="518.7" y2="0"/>
<line class="st3" x1="493.2" y1="36" x2="527.2" y2="0"/>
<line class="st3" x1="501.7" y1="36" x2="535.7" y2="0"/>
<line class="st3" x1="552.8" y1="36" x2="586.8" y2="0"/>
<line class="st3" x1="544.3" y1="36" x2="578.3" y2="0"/>
<line class="st3" x1="535.7" y1="36" x2="569.8" y2="0"/>
<line class="st3" x1="527.2" y1="36" x2="561.3" y2="0"/>
<line class="st3" x1="518.7" y1="36" x2="552.8" y2="0"/>
<line class="st3" x1="510.2" y1="36" x2="544.3" y2="0"/>
<line class="st3" x1="561.3" y1="36" x2="595.3" y2="0"/>
<line class="st3" x1="569.8" y1="36" x2="603.8" y2="0"/>
<line class="st3" x1="578.3" y1="36" x2="612.3" y2="0"/>
<line class="st3" x1="629.3" y1="36" x2="663.3" y2="0"/>
<line class="st3" x1="620.8" y1="36" x2="654.8" y2="0"/>
<line class="st3" x1="612.3" y1="36" x2="646.3" y2="0"/>
<line class="st3" x1="603.8" y1="36" x2="637.8" y2="0"/>
<line class="st3" x1="595.3" y1="36" x2="629.3" y2="0"/>
<line class="st3" x1="586.8" y1="36" x2="620.8" y2="0"/>
<line class="st3" x1="637.8" y1="36" x2="671.8" y2="0"/>
<line class="st3" x1="646.3" y1="36" x2="680.3" y2="0"/>
<line class="st3" x1="654.8" y1="36" x2="688.8" y2="0"/>
<line class="st3" x1="705.8" y1="36" x2="739.8" y2="0"/>
<line class="st3" x1="697.3" y1="36" x2="731.3" y2="0"/>
<line class="st3" x1="688.8" y1="36" x2="722.8" y2="0"/>
<line class="st3" x1="680.3" y1="36" x2="714.3" y2="0"/>
<line class="st3" x1="671.8" y1="36" x2="705.8" y2="0"/>
<line class="st3" x1="663.3" y1="36" x2="697.3" y2="0"/>
<line class="st3" x1="714.3" y1="36" x2="748.3" y2="0"/>
<line class="st3" x1="722.8" y1="36" x2="756.9" y2="0"/>
<line class="st3" x1="731.3" y1="36" x2="765.4" y2="0"/>
<line class="st3" x1="782.4" y1="36" x2="816.4" y2="0"/>
<line class="st3" x1="773.9" y1="36" x2="807.9" y2="0"/>
<line class="st3" x1="765.4" y1="36" x2="799.4" y2="0"/>
<line class="st3" x1="756.9" y1="36" x2="790.9" y2="0"/>
<line class="st3" x1="748.3" y1="36" x2="782.4" y2="0"/>
<line class="st3" x1="739.8" y1="36" x2="773.9" y2="0"/>
<line class="st3" x1="790.9" y1="36" x2="824.9" y2="0"/>
<line class="st3" x1="799.4" y1="36" x2="833.4" y2="0"/>
<line class="st3" x1="807.9" y1="36" x2="841.9" y2="0"/>
<line class="st3" x1="858.9" y1="36" x2="892.9" y2="0"/>
<line class="st3" x1="850.4" y1="36" x2="884.4" y2="0"/>
<line class="st3" x1="841.9" y1="36" x2="875.9" y2="0"/>
<line class="st3" x1="833.4" y1="36" x2="867.4" y2="0"/>
<line class="st3" x1="824.9" y1="36" x2="858.9" y2="0"/>
<line class="st3" x1="816.4" y1="36" x2="850.4" y2="0"/>
<line class="st3" x1="867.4" y1="36" x2="901.4" y2="0"/>
<line class="st3" x1="875.9" y1="36" x2="909.9" y2="0"/>
<line class="st3" x1="884.4" y1="36" x2="918.4" y2="0"/>
<line class="st3" x1="935.4" y1="36" x2="969.4" y2="0"/>
<line class="st3" x1="926.9" y1="36" x2="960.9" y2="0"/>
<line class="st3" x1="918.4" y1="36" x2="952.4" y2="0"/>
<line class="st3" x1="909.9" y1="36" x2="943.9" y2="0"/>
<line class="st3" x1="901.4" y1="36" x2="935.4" y2="0"/>
<line class="st3" x1="892.9" y1="36" x2="926.9" y2="0"/>
<line class="st3" x1="943.9" y1="36" x2="978" y2="0"/>
<line class="st3" x1="952.4" y1="36" x2="986.5" y2="0"/>
<line class="st3" x1="960.9" y1="36" x2="995" y2="0"/>
<line class="st3" x1="1012" y1="36" x2="1046" y2="0"/>
<line class="st3" x1="1003.5" y1="36" x2="1037.5" y2="0"/>
<line class="st3" x1="995" y1="36" x2="1029" y2="0"/>
<line class="st3" x1="986.5" y1="36" x2="1020.5" y2="0"/>
<line class="st3" x1="978" y1="36" x2="1012" y2="0"/>
<line class="st3" x1="969.4" y1="36" x2="1003.5" y2="0"/>
<line class="st3" x1="1020.5" y1="36" x2="1054.5" y2="0"/>
<line class="st3" x1="1029" y1="36" x2="1063" y2="0"/>
<line class="st3" x1="1037.5" y1="36" x2="1071.5" y2="0"/>
<line class="st3" x1="1088.5" y1="36" x2="1122.5" y2="0"/>
<line class="st3" x1="1080" y1="36" x2="1114" y2="0"/>
<line class="st3" x1="1071.5" y1="36" x2="1105.5" y2="0"/>
<line class="st3" x1="1063" y1="36" x2="1097" y2="0"/>
<line class="st3" x1="1054.5" y1="36" x2="1088.5" y2="0"/>
<line class="st3" x1="1046" y1="36" x2="1080" y2="0"/>
<line class="st3" x1="1097" y1="36" x2="1131" y2="0"/>
<line class="st3" x1="1105.5" y1="36" x2="1139.5" y2="0"/>
<line class="st3" x1="1114" y1="36" x2="1148" y2="0"/>
<line class="st3" x1="1131" y1="36" x2="1165" y2="0"/>
<line class="st3" x1="1122.5" y1="36" x2="1156.5" y2="0"/>
<rect x="-3.4" y="29.8" class="st4" width="1137.2" height="7.4"/>
</svg>
